<?xml version="1.0" encoding="UTF-8" standalone="no"?>
<svg
   xmlns:dc="http://purl.org/dc/elements/1.1/"
   xmlns:cc="http://creativecommons.org/ns#"
   xmlns:rdf="http://www.w3.org/1999/02/22-rdf-syntax-ns#"
   xmlns:svg="http://www.w3.org/2000/svg"
   xmlns="http://www.w3.org/2000/svg"
   xmlns:sodipodi="http://sodipodi.sourceforge.net/DTD/sodipodi-0.dtd"
   xmlns:inkscape="http://www.inkscape.org/namespaces/inkscape"
   width="144"
   height="144"
   viewBox="0 0 38.099999 38.100001"
   version="1.1"
   id="svg8"
   inkscape:version="1.0.1 (3bc2e813f5, 2020-09-07)"
   sodipodi:docname="aim-at.svg">
  <defs
     id="defs2" />
  <sodipodi:namedview
     id="base"
     pagecolor="#ffffff"
     bordercolor="#666666"
     borderopacity="1.0"
     inkscape:pageopacity="0.0"
     inkscape:pageshadow="2"
     inkscape:zoom="11.313708"
     inkscape:cx="39.398889"
     inkscape:cy="95.190014"
     inkscape:document-units="mm"
     inkscape:current-layer="layer2"
     inkscape:document-rotation="0"
     showgrid="false"
     units="px"
     inkscape:window-width="1366"
     inkscape:window-height="705"
     inkscape:window-x="-8"
     inkscape:window-y="-8"
     inkscape:window-maximized="1" />
  <metadata
     id="metadata5">
    <rdf:RDF>
      <cc:Work
         rdf:about="">
        <dc:format>image/svg+xml</dc:format>
        <dc:type
           rdf:resource="http://purl.org/dc/dcmitype/StillImage" />
        <dc:title />
      </cc:Work>
    </rdf:RDF>
  </metadata>
  <g
     inkscape:groupmode="layer"
     id="layer3"
     inkscape:label="Layer 3"
     style="display:inline">
    <path
       style="display:inline;fill:#f57900;stroke:#000000;stroke-width:0.264583px;stroke-linecap:butt;stroke-linejoin:miter;stroke-opacity:1"
       d="m 18.933983,29.979767 5.489811,1.753883 0.463314,-0.03409 0.429432,-0.06567 4.073487,-2.290288 0.276117,-0.372561 0.07527,-0.538486 -0.373071,-1.132119 -1.306235,-2.943067 c 1.465889,1.519356 2.821488,2.406509 3.009635,4.547526 l -0.3467,0.769066 v 0 0 l -0.187664,0.272355 -5.228716,3.783472 -0.487701,0.08644 -0.523639,-0.0071 -6.62011,-1.844942 z"
       id="path841"
       sodipodi:nodetypes="ccccccccccccccccccc" />
    <path
       style="display:inline;fill:#f57900;stroke:#000000;stroke-width:0.264583px;stroke-linecap:butt;stroke-linejoin:miter;stroke-opacity:1"
       d="m 9.3310473,15.364657 -5.6360461,-2.03459 -1.2628485,0.07016 -0.7015825,0.771741 -0.046772,0.631424 0.4328686,-0.185158 v 0 l 0.1050113,0.325474 0.4443357,-0.280633 0.280633,0.397564 0.3975634,-0.350791 0.093544,0.491107 0.514494,-0.420949 -0.023387,-0.210475 5.2384827,1.753956 z"
       id="path846" />
    <path
       style="display:inline;fill:#f57900;stroke:#000000;stroke-width:0.264583px;stroke-linecap:butt;stroke-linejoin:miter;stroke-opacity:1"
       d="m 16.136398,27.993141 -2.923261,-1.169305 -6.1739258,2.10475 -0.6548104,2.970033 1.3096205,1.169302 -3.5780707,-1.005602 -1.3330068,0.654812 1.0289879,0.09354 -0.1169305,0.608039 0.7015824,-0.397562 0.093545,0.654809 0.4911076,-0.444336 0.046772,0.771742 0.5144937,-0.584653 3.5546847,1.122532 6.1037674,-1.005602 -0.04677,0.02339"
       id="path848" />
  </g>
  <g
     inkscape:groupmode="layer"
     id="layer2"
     inkscape:label="Layer 2"
     style="display:inline">
    <path
       style="display:inline;fill:#f57900;stroke:#000000;stroke-width:0.264583px;stroke-linecap:butt;stroke-linejoin:miter;stroke-opacity:1"
       d="M 17.4625,33.998958 20.713133,27.065392 19.860349,18.559617 17.840085,12.14224 12.369271,6.2838541 10.781771,3.7041667 9.8557292,6.2838542 9.1788816,6.359829 8.9159278,6.4077206 8.6575991,6.4790239 8.0036458,6.746875 6.2177083,4.5640625 5.4901042,7.2098958 5.3578125,7.4744792 4.7604438,8.4823327 4.365625,9.6572917 l 1.3890625,2.4473963 2.5796875,1.25677 -0.068015,0.50687 -0.1896425,0.478053 -0.1397989,0.30097 -0.080432,0.288453 -0.1648848,1.145314 -4.3181644,-1.529035 -1.2567708,0.06615 -0.7276042,0.926042 -0.066146,0.661458 0.6614583,-0.330729 0.2645833,0.727604 0.7276042,-0.463021 0.1322917,0.661459 0.5953125,-0.396875 0.1984375,0.727604 0.3307291,-0.859896 3.2411459,1.256771 -0.9276574,6.571599 -0.061208,1.167463 0.2138656,1.074464 0.9734354,3.15887 0.79375,0.992187 v 0 l 1.7197918,2.116667 3.704167,1.058333 3.505729,0.595313 z"
       id="path837"
       sodipodi:nodetypes="ccccccccccccccccccccccccccccccccccccccccccccc" />
    <path
       style="display:inline;fill:#f57900;stroke:#000000;stroke-width:0.264583px;stroke-linecap:butt;stroke-linejoin:miter;stroke-opacity:1"
       d="M 15.875,28.641145 13.427604,27.582812 7.6729163,29.501047 6.8791666,32.808333 8.0697916,33.80052 3.5057291,32.808333 2.38125,33.535937 3.3734375,33.80052 3.4395833,34.461979 4.1671874,34.13125 4.4979166,34.925 5.1593749,34.461979 5.4239583,35.123437 5.8869791,34.395833 m 0,0 c 5.2916669,1.190625 8.6651039,-1.984375 8.6651039,-1.984375"
       id="path839" />
  </g>
  <g
     inkscape:label="Layer 1"
     inkscape:groupmode="layer"
     id="layer1"
     style="display:inline">
    <text
       xml:space="preserve"
       style="font-size:10.5833px;line-height:1.25;font-family:serif;-inkscape-font-specification:serif;display:inline;stroke-width:0.264583"
       x="19.579166"
       y="17.727083"
       id="text33"><tspan
         sodipodi:role="line"
         id="tspan31"
         x="19.579166"
         y="17.727083"
         style="stroke-width:0.264583">👁️</tspan></text>
    <text
       xml:space="preserve"
       style="font-size:10.5833px;line-height:1.25;font-family:serif;-inkscape-font-specification:serif;display:inline;stroke-width:0.264583"
       x="0.59531283"
       y="32.411457"
       id="text43"><tspan
         sodipodi:role="line"
         id="tspan41"
         x="0.59531283"
         y="32.411457"
         style="font-size:33.8667px;stroke-width:0.264583">犭</tspan></text>
  </g>
</svg>
