<?xml version="1.0" encoding="UTF-8" standalone="no"?>
<svg
   xmlns:dc="http://purl.org/dc/elements/1.1/"
   xmlns:cc="http://creativecommons.org/ns#"
   xmlns:rdf="http://www.w3.org/1999/02/22-rdf-syntax-ns#"
   xmlns:svg="http://www.w3.org/2000/svg"
   xmlns="http://www.w3.org/2000/svg"
   xmlns:sodipodi="http://sodipodi.sourceforge.net/DTD/sodipodi-0.dtd"
   xmlns:inkscape="http://www.inkscape.org/namespaces/inkscape"
   width="144"
   height="144"
   viewBox="0 0 38.099999 38.100001"
   version="1.1"
   id="svg8"
   inkscape:version="1.0.1 (3bc2e813f5, 2020-09-07)"
   sodipodi:docname="Rightward then Downward and Leftward then Downward Like Cedilla.svg">
  <defs
     id="defs2" />
  <sodipodi:namedview
     id="base"
     pagecolor="#ffffff"
     bordercolor="#666666"
     borderopacity="1.0"
     inkscape:pageopacity="0.0"
     inkscape:pageshadow="2"
     inkscape:zoom="4"
     inkscape:cx="49.463816"
     inkscape:cy="71.627101"
     inkscape:document-units="mm"
     inkscape:current-layer="layer1"
     inkscape:document-rotation="0"
     showgrid="false"
     units="px"
     inkscape:window-width="1366"
     inkscape:window-height="705"
     inkscape:window-x="-8"
     inkscape:window-y="-8"
     inkscape:window-maximized="1" />
  <metadata
     id="metadata5">
    <rdf:RDF>
      <cc:Work
         rdf:about="">
        <dc:format>image/svg+xml</dc:format>
        <dc:type
           rdf:resource="http://purl.org/dc/dcmitype/StillImage" />
        <dc:title></dc:title>
      </cc:Work>
    </rdf:RDF>
  </metadata>
  <g
     inkscape:label="Layer 1"
     inkscape:groupmode="layer"
     id="layer1">
    <text
       xml:space="preserve"
       style="font-size:10.5833px;line-height:1.25;font-family:serif;-inkscape-font-specification:serif;display:inline;stroke-width:0.264583"
       x="17.859375"
       y="16.404167"
       id="text12"><tspan
         sodipodi:role="line"
         id="tspan10"
         x="17.859375"
         y="16.404167"
         style="stroke-width:0.264583" /></text>
    <g
       aria-label="↓"
       id="text56"
       style="font-size:10.5833px;line-height:1.25;font-family:serif;-inkscape-font-specification:serif;stroke-width:0.264583">
      <path
         d="m 14.77731,27.007585 0.42938,-3.496801 c 1.548367,1.041978 1.145014,-3.910037 1.756553,1.192092 0.116503,0.97195 0.370828,1.041977 1.619931,2.384185 4.38855,-5.484433 5.169967,-5.441769 -0.480879,-9.229553 -1.026498,-1.557187 -0.570654,-1.632032 -0.855944,-2.448012 L 26.06364,8.3605972 5.0179365,9.1016901 V 6.0287461 L 7.3795227,6.161165 v 0 L 31.750971,6.0422335 19.844721,15.711253 c 1.516218,1.586257 3.212317,2.952747 4.915768,4.325801 -0.322318,3.304757 -2.755546,5.68824 -4.596417,8.321569 1.405242,-1.819045 4.274276,-3.558616 6.889586,-5.218714 v 2.039801 c -1.873655,2.278221 -4.625585,3.814698 -5.601448,5.457136 -0.96285,1.642437 -4.443423,2.490149 -5.054963,4.23855 L 15.226213,34.39856 c -0.481426,-1.518814 1.828112,-1.704253 0.839238,-3.417334 1.422417,-4.038227 0.624551,-2.251732 -1.288141,-3.973641 z"
         style="font-size:33.8667px;stroke-width:0.363812"
         id="path58"
         sodipodi:nodetypes="ccsccccccccccccccccccc" />
    </g>
  </g>
</svg>
